<svg xmlns="http://www.w3.org/2000/svg" viewBox="0 0 48 48"><defs><style>.a,.b{fill:#1b344b;}.a{fill-rule:evenodd;}</style></defs><path class="a" d="M45.44,23.27l1.5.11a1.5,1.5,0,1,1-3-.22h0V23a4.06,4.06,0,0,0,0-.5,12.86,12.86,0,0,0-.16-1.89,15.88,15.88,0,0,0-2-5.72,19.49,19.49,0,0,0-5.09-5.66A17.28,17.28,0,0,0,34.79,8l-.55-.29-.13-.06h0l.58-1.38-.58,1.38a1.5,1.5,0,1,1,1.17-2.76l-.57,1.35.57-1.35h0l.06,0,.2.09.69.36a19.85,19.85,0,0,1,2.27,1.48,22.26,22.26,0,0,1,5.88,6.54,18.59,18.59,0,0,1,2.37,6.8A17.28,17.28,0,0,1,47,22.45q0,.42,0,.66v.26h0Z"/><path class="a" d="M40.55,3.92a1.5,1.5,0,0,1-1,1.88L35.8,7,37,11.2a1.5,1.5,0,0,1-2.9.79L32.53,6.34a1.5,1.5,0,0,1,1-1.83l5.15-1.58A1.5,1.5,0,0,1,40.55,3.92Z"/><path class="a" d="M3.37,31,2,31.51a1.5,1.5,0,1,1,2.83-1h0v0l0,.12.2.46a17.41,17.41,0,0,0,.89,1.68A15.88,15.88,0,0,0,10,37.29a19.58,19.58,0,0,0,6.91,3.21,17.75,17.75,0,0,0,2.27.4l.61.05h.17v0a1.5,1.5,0,0,1,0,3v0h-.32c-.18,0-.45,0-.77-.06a21.4,21.4,0,0,1-2.67-.46,22.29,22.29,0,0,1-8-3.72,18.7,18.7,0,0,1-4.85-5.33,17.14,17.14,0,0,1-1.06-2c-.12-.26-.2-.46-.26-.61L2,31.58v0H2Z"/><path class="a" d="M15.44,46.9a1.5,1.5,0,0,1,.18-2.11l3-2.53L15.9,38.8a1.5,1.5,0,0,1,2.36-1.86l3.63,4.6a1.5,1.5,0,0,1-.21,2.07l-4.12,3.47A1.5,1.5,0,0,1,15.44,46.9Z"/><path class="a" d="M18.54,1.27A1.5,1.5,0,0,1,20.3.85l3.21,1.42A1.5,1.5,0,0,1,24.37,4L23.79,6.7a9.24,9.24,0,0,1,1.05,1.23l2.77-.57a1.5,1.5,0,0,1,1.69.92l1.25,3.12A1.49,1.49,0,0,1,30,13.21l-2.41,1.58a9.19,9.19,0,0,1,0,1.66L29.84,18a1.49,1.49,0,0,1,.54,1.8L29,23.1a1.49,1.49,0,0,1-1.73.9l-2.73-.63a9.29,9.29,0,0,1-1.14,1.08L24,27.09a1.51,1.51,0,0,1-.84,1.65l-3.23,1.49a1.5,1.5,0,0,1-1.9-.55l-1.56-2.45a8.12,8.12,0,0,1-1.62,0c-.68,1.07-1.26,1.92-1.51,2.28A1.51,1.51,0,0,1,11.5,30L8.11,28.67a1.5,1.5,0,0,1-.9-1.76l.7-2.74A5.8,5.8,0,0,1,6.85,23c-1.08.23-2.21.44-2.75.54a1.5,1.5,0,0,1-1.65-.91l-1.4-3.39a1.5,1.5,0,0,1,.61-1.85L4,16a8.47,8.47,0,0,1,.13-1.67c-.88-.53-1.86-1.14-2.35-1.45A1.5,1.5,0,0,1,1.2,11L2.54,7.73A1.51,1.51,0,0,1,4.3,6.84l2.77.7A10,10,0,0,1,8.33,6.27L7.81,3.69A1.5,1.5,0,0,1,8.71,2L11.93.68a1.49,1.49,0,0,1,1.84.59l1.59,2.57c.4,0,.88-.06,1.38-.06A22.89,22.89,0,0,1,18.54,1.27Zm1.62,2.8A18.26,18.26,0,0,0,18.92,6a1.5,1.5,0,0,1-1.38.79,16.06,16.06,0,0,0-2.73.13,1.49,1.49,0,0,1-1.5-.7L11.89,3.94,11,4.31l.45,2.29a1.48,1.48,0,0,1-.62,1.53A6.44,6.44,0,0,0,9,10a1.5,1.5,0,0,1-1.68.72l-2.5-.63L4.46,11c.74.46,1.61,1,2.22,1.35a1.49,1.49,0,0,1,.62,1.87,4.28,4.28,0,0,0-.22,2.23,1.5,1.5,0,0,1-.68,1.62L4.31,19.33l.44,1.07c.79-.15,1.75-.34,2.51-.52A1.5,1.5,0,0,1,9,20.74a3,3,0,0,0,.71,1A2.36,2.36,0,0,0,10,22l.12.08,0,0a1.5,1.5,0,0,1,.88,1.75l-.64,2.5,1.05.42c.36-.55.82-1.26,1.3-2a1.52,1.52,0,0,1,1.62-.67,6.12,6.12,0,0,0,1.55.16l.51-.05.16,0h.06a1.51,1.51,0,0,1,1.73.62L19.8,27l1-.45-.47-2.43A1.49,1.49,0,0,1,21,22.53a6.58,6.58,0,0,0,1.22-1c.14-.15.24-.28.32-.38a.61.61,0,0,0,.09-.14h0a1.51,1.51,0,0,1,1.69-.79l2.44.57.41-1-2.07-1.41a1.49,1.49,0,0,1-.6-1.63,5,5,0,0,0,.13-1.33,6.94,6.94,0,0,0-.12-1.05,1.51,1.51,0,0,1,.65-1.57l2.17-1.42L27,10.55l-2.53.52a1.52,1.52,0,0,1-1.59-.7,8.1,8.1,0,0,0-1-1.36,4,4,0,0,0-.36-.36l-.15-.12h0A1.5,1.5,0,0,1,20.67,7l.51-2.43Z"/><path class="a" d="M32.52,30.59a5.5,5.5,0,0,1,3.17-.78l.12,0,.55-2,2.78.75-.55,2a.3.3,0,0,1,.11.06,5.68,5.68,0,0,1,2.22,2.29A.36.36,0,0,0,41,33h0c1.12-.23,2-.46,2.32-.54l.78,2.69-2.31.65v.11c0,.2-.05.39-.07.57A5.11,5.11,0,0,1,41,38.84l0,0-.05.09c.73.68,1.3,1.23,1.58,1.5l.12.12-2,2-1.75-1.6-.1.07a5.75,5.75,0,0,1-3,.8h-.13L35,44l-2.78-.74.58-2.18-.11,0a5,5,0,0,1-2.43-2.3l-.05-.09-.11,0c-1.06.31-1.81.47-2.06.52l-.88-2.75,2.21-.57v-.14a7.28,7.28,0,0,1,.77-3h0a.78.78,0,0,1,.11-.18c-.32-.33-.62-.6-.91-.85l-.63-.58L28.61,31l2.13-1.91,1.6,1.6ZM33.46,27h0a3,3,0,0,1,3.68-2.12l2.78.74A3,3,0,0,1,42,29.31l0,.11c.07.07.15.14.22.22l.25-.06a3,3,0,0,1,3.67,2l.79,2.69A3,3,0,0,1,44.88,38l-.44.13a3.85,3.85,0,0,1,.28.27,2.94,2.94,0,0,1,.89,2.15,3,3,0,0,1-.91,2.14l-2,2a3,3,0,0,1-4.11,0l-.31-.28-.28.07-.06.22a3,3,0,0,1-3.68,2.12l-2.78-.74a3,3,0,0,1-2.12-3.68l0-.08L29,42.05l-.4.08a3,3,0,0,1-3.42-2l-.88-2.75a3,3,0,0,1,2.11-3.82l.28-.07,0-.1-.24-.24a3,3,0,0,1,.14-4.34l2.13-1.91a3,3,0,0,1,4.12.12l.14.14Z"/><path class="b" d="M37.61,35.71a2,2,0,1,1-2-2A2,2,0,0,1,37.61,35.71Z"/><path class="a" d="M15.61,17.71a2,2,0,1,0-2-2A2,2,0,0,0,15.61,17.71Zm0,3a5,5,0,1,0-5-5A5,5,0,0,0,15.61,20.71Z"/></svg>